# Blender 5.0.1
# www.blender.org
mtllib gravity_test.mtl
o Plane
v -1.000000 0.000000 1.000000
v 1.000000 0.000000 1.000000
v -1.000000 0.000000 -1.000000
v 1.000000 0.000000 -1.000000
v -1.000000 78.480003 1.000000
v 1.000000 78.480003 1.000000
v -1.000000 78.480003 -1.000000
v 1.000000 78.480003 -1.000000
vn -0.0000 1.0000 -0.0000
vn -0.0000 -0.0000 -1.0000
vn 1.0000 -0.0000 -0.0000
vn -0.0000 -0.0000 1.0000
vn -1.0000 -0.0000 -0.0000
vt 0.000000 0.000000
vt 1.000000 0.000000
vt 1.000000 1.000000
vt 0.000000 1.000000
s 0
f 1/1/1 2/2/1 4/3/1 3/4/1
f 5/1/1 6/2/1 8/3/1 7/4/1
f 7/4/2 8/3/2 4/3/2 3/4/2
f 8/3/3 6/2/3 2/2/3 4/3/3
f 6/2/4 5/1/4 1/1/4 2/2/4
f 5/1/5 7/4/5 3/4/5 1/1/5
o Plane.002
v -1.000000 19.620001 -1.000000
v 1.000000 19.620001 -1.000000
v -1.000000 19.620001 -3.000000
v 1.000000 19.620001 -3.000000
v -1.000000 0.000000 -1.000000
v 1.000000 0.000000 -1.000000
v -1.000000 0.000000 -3.000000
v 1.000000 0.000000 -3.000000
vn -0.0000 1.0000 -0.0000
vn -0.0000 -0.0000 1.0000
vn 1.0000 -0.0000 -0.0000
vn -0.0000 -0.0000 -1.0000
vn -1.0000 -0.0000 -0.0000
vt 0.000000 0.000000
vt 1.000000 0.000000
vt 1.000000 1.000000
vt 0.000000 1.000000
s 0
f 9/5/6 10/6/6 12/7/6 11/8/6
f 13/5/6 14/6/6 16/7/6 15/8/6
f 13/5/7 14/6/7 10/6/7 9/5/7
f 14/6/8 16/7/8 12/7/8 10/6/8
f 16/7/9 15/8/9 11/8/9 12/7/9
f 15/8/10 13/5/10 9/5/10 11/8/10
o Plane.003
v -1.000000 0.000000 -3.000000
v 1.000000 0.000000 -3.000000
v -1.000000 0.000000 -5.000000
v 1.000000 0.000000 -5.000000
v -1.000000 4.905000 -3.000000
v 1.000000 4.905000 -3.000000
v -1.000000 4.905000 -5.000000
v 1.000000 4.905000 -5.000000
vn -0.0000 1.0000 -0.0000
vn -0.0000 -0.0000 -1.0000
vn 1.0000 -0.0000 -0.0000
vn -0.0000 -0.0000 1.0000
vn -1.0000 -0.0000 -0.0000
vt 0.000000 0.000000
vt 1.000000 0.000000
vt 1.000000 1.000000
vt 0.000000 1.000000
s 0
f 17/9/11 18/10/11 20/11/11 19/12/11
f 21/9/11 22/10/11 24/11/11 23/12/11
f 23/12/12 24/11/12 20/11/12 19/12/12
f 24/11/13 22/10/13 18/10/13 20/11/13
f 22/10/14 21/9/14 17/9/14 18/10/14
f 21/9/15 23/12/15 19/12/15 17/9/15
o Cube
v -20.000000 -1.000000 20.000000
v -20.000000 0.000000 20.000000
v -20.000000 -1.000000 -20.000000
v -20.000000 0.000000 -20.000000
v 20.000000 -1.000000 20.000000
v 20.000000 0.000000 20.000000
v 20.000000 -1.000000 -20.000000
v 20.000000 0.000000 -20.000000
vn -1.0000 -0.0000 -0.0000
vn -0.0000 -0.0000 -1.0000
vn 1.0000 -0.0000 -0.0000
vn -0.0000 -0.0000 1.0000
vn -0.0000 -1.0000 -0.0000
vn -0.0000 1.0000 -0.0000
vt 0.375000 0.000000
vt 0.625000 0.000000
vt 0.625000 0.250000
vt 0.375000 0.250000
vt 0.625000 0.500000
vt 0.375000 0.500000
vt 0.625000 0.750000
vt 0.375000 0.750000
vt 0.625000 1.000000
vt 0.375000 1.000000
vt 0.125000 0.500000
vt 0.125000 0.750000
vt 0.875000 0.500000
vt 0.875000 0.750000
s 0
f 25/13/16 26/14/16 28/15/16 27/16/16
f 27/16/17 28/15/17 32/17/17 31/18/17
f 31/18/18 32/17/18 30/19/18 29/20/18
f 29/20/19 30/19/19 26/21/19 25/22/19
f 27/23/20 31/18/20 29/20/20 25/24/20
f 32/17/21 28/25/21 26/26/21 30/19/21
o Cylinder
v -14.000000 0.000000 6.600000
v -14.000000 1.750000 6.600000
v -13.921964 0.000000 6.607686
v -13.921964 1.750000 6.607686
v -13.846927 0.000000 6.630448
v -13.846927 1.750000 6.630448
v -13.777772 0.000000 6.667412
v -13.777772 1.750000 6.667412
v -13.717157 0.000000 6.717157
v -13.717157 1.750000 6.717157
v -13.667412 0.000000 6.777772
v -13.667412 1.750000 6.777772
v -13.630448 0.000000 6.846927
v -13.630448 1.750000 6.846927
v -13.607686 0.000000 6.921964
v -13.607686 1.750000 6.921964
v -13.600000 0.000000 7.000000
v -13.600000 1.750000 7.000000
v -13.607686 0.000000 7.078036
v -13.607686 1.750000 7.078036
v -13.630448 0.000000 7.153073
v -13.630448 1.750000 7.153073
v -13.667412 0.000000 7.222228
v -13.667412 1.750000 7.222228
v -13.717157 0.000000 7.282843
v -13.717157 1.750000 7.282843
v -13.777772 0.000000 7.332588
v -13.777772 1.750000 7.332588
v -13.846927 0.000000 7.369552
v -13.846927 1.750000 7.369552
v -13.921964 0.000000 7.392314
v -13.921964 1.750000 7.392314
v -14.000000 0.000000 7.400000
v -14.000000 1.750000 7.400000
v -14.078036 0.000000 7.392314
v -14.078036 1.750000 7.392314
v -14.153073 0.000000 7.369552
v -14.153073 1.750000 7.369552
v -14.222228 0.000000 7.332588
v -14.222228 1.750000 7.332588
v -14.282843 0.000000 7.282843
v -14.282843 1.750000 7.282843
v -14.332588 0.000000 7.222228
v -14.332588 1.750000 7.222228
v -14.369552 0.000000 7.153073
v -14.369552 1.750000 7.153073
v -14.392314 0.000000 7.078036
v -14.392314 1.750000 7.078036
v -14.400000 0.000000 7.000000
v -14.400000 1.750000 7.000000
v -14.392314 0.000000 6.921964
v -14.392314 1.750000 6.921964
v -14.369552 0.000000 6.846927
v -14.369552 1.750000 6.846927
v -14.332588 0.000000 6.777772
v -14.332588 1.750000 6.777772
v -14.282843 0.000000 6.717157
v -14.282843 1.750000 6.717157
v -14.222228 0.000000 6.667412
v -14.222228 1.750000 6.667412
v -14.153073 0.000000 6.630448
v -14.153073 1.750000 6.630448
v -14.078036 0.000000 6.607686
v -14.078036 1.750000 6.607686
vn 0.0980 -0.0000 -0.9952
vn 0.2903 -0.0000 -0.9569
vn 0.4714 -0.0000 -0.8819
vn 0.6344 -0.0000 -0.7730
vn 0.7730 -0.0000 -0.6344
vn 0.8819 -0.0000 -0.4714
vn 0.9569 -0.0000 -0.2903
vn 0.9952 -0.0000 -0.0980
vn 0.9952 -0.0000 0.0980
vn 0.9569 -0.0000 0.2903
vn 0.8819 -0.0000 0.4714
vn 0.7730 -0.0000 0.6344
vn 0.6344 -0.0000 0.7730
vn 0.4714 -0.0000 0.8819
vn 0.2903 -0.0000 0.9569
vn 0.0980 -0.0000 0.9952
vn -0.0980 -0.0000 0.9952
vn -0.2903 -0.0000 0.9569
vn -0.4714 -0.0000 0.8819
vn -0.6344 -0.0000 0.7730
vn -0.7730 -0.0000 0.6344
vn -0.8819 -0.0000 0.4714
vn -0.9569 -0.0000 0.2903
vn -0.9952 -0.0000 0.0980
vn -0.9952 -0.0000 -0.0980
vn -0.9569 -0.0000 -0.2903
vn -0.8819 -0.0000 -0.4714
vn -0.7730 -0.0000 -0.6344
vn -0.6344 -0.0000 -0.7730
vn -0.4714 -0.0000 -0.8819
vn -0.0000 1.0000 -0.0000
vn -0.2903 -0.0000 -0.9569
vn -0.0980 -0.0000 -0.9952
vn -0.0000 -1.0000 -0.0000
vt 1.000000 0.500000
vt 1.000000 1.000000
vt 0.968750 1.000000
vt 0.968750 0.500000
vt 0.937500 1.000000
vt 0.937500 0.500000
vt 0.906250 1.000000
vt 0.906250 0.500000
vt 0.875000 1.000000
vt 0.875000 0.500000
vt 0.843750 1.000000
vt 0.843750 0.500000
vt 0.812500 1.000000
vt 0.812500 0.500000
vt 0.781250 1.000000
vt 0.781250 0.500000
vt 0.750000 1.000000
vt 0.750000 0.500000
vt 0.718750 1.000000
vt 0.718750 0.500000
vt 0.687500 1.000000
vt 0.687500 0.500000
vt 0.656250 1.000000
vt 0.656250 0.500000
vt 0.625000 1.000000
vt 0.625000 0.500000
vt 0.593750 1.000000
vt 0.593750 0.500000
vt 0.562500 1.000000
vt 0.562500 0.500000
vt 0.531250 1.000000
vt 0.531250 0.500000
vt 0.500000 1.000000
vt 0.500000 0.500000
vt 0.468750 1.000000
vt 0.468750 0.500000
vt 0.437500 1.000000
vt 0.437500 0.500000
vt 0.406250 1.000000
vt 0.406250 0.500000
vt 0.375000 1.000000
vt 0.375000 0.500000
vt 0.343750 1.000000
vt 0.343750 0.500000
vt 0.312500 1.000000
vt 0.312500 0.500000
vt 0.281250 1.000000
vt 0.281250 0.500000
vt 0.250000 1.000000
vt 0.250000 0.500000
vt 0.218750 1.000000
vt 0.218750 0.500000
vt 0.187500 1.000000
vt 0.187500 0.500000
vt 0.156250 1.000000
vt 0.156250 0.500000
vt 0.125000 1.000000
vt 0.125000 0.500000
vt 0.093750 1.000000
vt 0.093750 0.500000
vt 0.062500 1.000000
vt 0.062500 0.500000
vt 0.296822 0.485388
vt 0.250000 0.490000
vt 0.203178 0.485388
vt 0.158156 0.471731
vt 0.116663 0.449553
vt 0.080294 0.419706
vt 0.050447 0.383337
vt 0.028269 0.341844
vt 0.014612 0.296822
vt 0.010000 0.250000
vt 0.014612 0.203178
vt 0.028269 0.158156
vt 0.050447 0.116663
vt 0.080294 0.080294
vt 0.116663 0.050447
vt 0.158156 0.028269
vt 0.203178 0.014612
vt 0.250000 0.010000
vt 0.296822 0.014612
vt 0.341844 0.028269
vt 0.383337 0.050447
vt 0.419706 0.080294
vt 0.449553 0.116663
vt 0.471731 0.158156
vt 0.485388 0.203178
vt 0.490000 0.250000
vt 0.485388 0.296822
vt 0.471731 0.341844
vt 0.449553 0.383337
vt 0.419706 0.419706
vt 0.383337 0.449553
vt 0.341844 0.471731
vt 0.031250 1.000000
vt 0.031250 0.500000
vt 0.000000 1.000000
vt 0.000000 0.500000
vt 0.750000 0.490000
vt 0.796822 0.485388
vt 0.841844 0.471731
vt 0.883337 0.449553
vt 0.919706 0.419706
vt 0.949553 0.383337
vt 0.971731 0.341844
vt 0.985388 0.296822
vt 0.990000 0.250000
vt 0.985388 0.203178
vt 0.971731 0.158156
vt 0.949553 0.116663
vt 0.919706 0.080294
vt 0.883337 0.050447
vt 0.841844 0.028269
vt 0.796822 0.014612
vt 0.750000 0.010000
vt 0.703178 0.014612
vt 0.658156 0.028269
vt 0.616663 0.050447
vt 0.580294 0.080294
vt 0.550447 0.116663
vt 0.528269 0.158156
vt 0.514612 0.203178
vt 0.510000 0.250000
vt 0.514612 0.296822
vt 0.528269 0.341844
vt 0.550447 0.383337
vt 0.580294 0.419706
vt 0.616663 0.449553
vt 0.658156 0.471731
vt 0.703178 0.485388
s 0
f 33/27/22 34/28/22 36/29/22 35/30/22
f 35/30/23 36/29/23 38/31/23 37/32/23
f 37/32/24 38/31/24 40/33/24 39/34/24
f 39/34/25 40/33/25 42/35/25 41/36/25
f 41/36/26 42/35/26 44/37/26 43/38/26
f 43/38/27 44/37/27 46/39/27 45/40/27
f 45/40/28 46/39/28 48/41/28 47/42/28
f 47/42/29 48/41/29 50/43/29 49/44/29
f 49/44/30 50/43/30 52/45/30 51/46/30
f 51/46/31 52/45/31 54/47/31 53/48/31
f 53/48/32 54/47/32 56/49/32 55/50/32
f 55/50/33 56/49/33 58/51/33 57/52/33
f 57/52/34 58/51/34 60/53/34 59/54/34
f 59/54/35 60/53/35 62/55/35 61/56/35
f 61/56/36 62/55/36 64/57/36 63/58/36
f 63/58/37 64/57/37 66/59/37 65/60/37
f 65/60/38 66/59/38 68/61/38 67/62/38
f 67/62/39 68/61/39 70/63/39 69/64/39
f 69/64/40 70/63/40 72/65/40 71/66/40
f 71/66/41 72/65/41 74/67/41 73/68/41
f 73/68/42 74/67/42 76/69/42 75/70/42
f 75/70/43 76/69/43 78/71/43 77/72/43
f 77/72/44 78/71/44 80/73/44 79/74/44
f 79/74/45 80/73/45 82/75/45 81/76/45
f 81/76/46 82/75/46 84/77/46 83/78/46
f 83/78/47 84/77/47 86/79/47 85/80/47
f 85/80/48 86/79/48 88/81/48 87/82/48
f 87/82/49 88/81/49 90/83/49 89/84/49
f 89/84/50 90/83/50 92/85/50 91/86/50
f 91/86/51 92/85/51 94/87/51 93/88/51
f 36/89/52 34/90/52 96/91/52 94/92/52 92/93/52 90/94/52 88/95/52 86/96/52 84/97/52 82/98/52 80/99/52 78/100/52 76/101/52 74/102/52 72/103/52 70/104/52 68/105/52 66/106/52 64/107/52 62/108/52 60/109/52 58/110/52 56/111/52 54/112/52 52/113/52 50/114/52 48/115/52 46/116/52 44/117/52 42/118/52 40/119/52 38/120/52
f 93/88/53 94/87/53 96/121/53 95/122/53
f 95/122/54 96/121/54 34/123/54 33/124/54
f 33/125/55 35/126/55 37/127/55 39/128/55 41/129/55 43/130/55 45/131/55 47/132/55 49/133/55 51/134/55 53/135/55 55/136/55 57/137/55 59/138/55 61/139/55 63/140/55 65/141/55 67/142/55 69/143/55 71/144/55 73/145/55 75/146/55 77/147/55 79/148/55 81/149/55 83/150/55 85/151/55 87/152/55 89/153/55 91/154/55 93/155/55 95/156/55
o Cylinder.001
v -14.006439 1.139780 6.455121
v -14.006439 1.378515 6.455121
v -13.899982 1.139780 6.465606
v -13.899982 1.378515 6.465606
v -13.797616 1.139780 6.496658
v -13.797616 1.378515 6.496658
v -13.703276 1.139780 6.547084
v -13.703276 1.378515 6.547084
v -13.620585 1.139780 6.614946
v -13.620585 1.378515 6.614946
v -13.552723 1.139780 6.697637
v -13.552723 1.378515 6.697637
v -13.502296 1.139780 6.791978
v -13.502296 1.378515 6.791978
v -13.471244 1.139780 6.894344
v -13.471244 1.378515 6.894344
v -13.460759 1.139780 7.000801
v -13.460759 1.378515 7.000801
v -13.471244 1.139780 7.107257
v -13.471244 1.378515 7.107257
v -13.502296 1.139780 7.209623
v -13.502296 1.378515 7.209623
v -13.552723 1.139780 7.303964
v -13.552723 1.378515 7.303964
v -13.620585 1.139780 7.386655
v -13.620585 1.378515 7.386655
v -13.703276 1.139780 7.454517
v -13.703276 1.378515 7.454517
v -13.797616 1.139780 7.504943
v -13.797616 1.378515 7.504943
v -13.899982 1.139780 7.535995
v -13.899982 1.378515 7.535995
v -14.006439 1.139780 7.546481
v -14.006439 1.378515 7.546481
v -14.112896 1.139780 7.535995
v -14.112896 1.378515 7.535995
v -14.215262 1.139780 7.504943
v -14.215262 1.378515 7.504943
v -14.309603 1.139780 7.454517
v -14.309603 1.378515 7.454517
v -14.392293 1.139780 7.386655
v -14.392293 1.378515 7.386655
v -14.460155 1.139780 7.303964
v -14.460155 1.378515 7.303964
v -14.510582 1.139780 7.209623
v -14.510582 1.378515 7.209623
v -14.541635 1.139780 7.107257
v -14.541635 1.378515 7.107257
v -14.552119 1.139780 7.000801
v -14.552119 1.378515 7.000801
v -14.541635 1.139780 6.894344
v -14.541635 1.378515 6.894344
v -14.510582 1.139780 6.791978
v -14.510582 1.378515 6.791978
v -14.460155 1.139780 6.697637
v -14.460155 1.378515 6.697637
v -14.392293 1.139780 6.614946
v -14.392293 1.378515 6.614946
v -14.309603 1.139780 6.547084
v -14.309603 1.378515 6.547084
v -14.215262 1.139780 6.496658
v -14.215262 1.378515 6.496658
v -14.112896 1.139780 6.465606
v -14.112896 1.378515 6.465606
vn 0.0980 -0.0000 -0.9952
vn 0.2903 -0.0000 -0.9569
vn 0.4714 -0.0000 -0.8819
vn 0.6344 -0.0000 -0.7730
vn 0.7730 -0.0000 -0.6344
vn 0.8819 -0.0000 -0.4714
vn 0.9569 -0.0000 -0.2903
vn 0.9952 -0.0000 -0.0980
vn 0.9952 -0.0000 0.0980
vn 0.9569 -0.0000 0.2903
vn 0.8819 -0.0000 0.4714
vn 0.7730 -0.0000 0.6344
vn 0.6344 -0.0000 0.7730
vn 0.4714 -0.0000 0.8819
vn 0.2903 -0.0000 0.9569
vn 0.0980 -0.0000 0.9952
vn -0.0980 -0.0000 0.9952
vn -0.2903 -0.0000 0.9569
vn -0.4714 -0.0000 0.8819
vn -0.6344 -0.0000 0.7730
vn -0.7730 -0.0000 0.6344
vn -0.8819 -0.0000 0.4714
vn -0.9569 -0.0000 0.2903
vn -0.9952 -0.0000 0.0980
vn -0.9952 -0.0000 -0.0980
vn -0.9569 -0.0000 -0.2903
vn -0.8819 -0.0000 -0.4714
vn -0.7730 -0.0000 -0.6344
vn -0.6344 -0.0000 -0.7730
vn -0.4714 -0.0000 -0.8819
vn -0.0000 1.0000 -0.0000
vn -0.2903 -0.0000 -0.9569
vn -0.0980 -0.0000 -0.9952
vn -0.0000 -1.0000 -0.0000
vt 1.000000 0.500000
vt 1.000000 1.000000
vt 0.968750 1.000000
vt 0.968750 0.500000
vt 0.937500 1.000000
vt 0.937500 0.500000
vt 0.906250 1.000000
vt 0.906250 0.500000
vt 0.875000 1.000000
vt 0.875000 0.500000
vt 0.843750 1.000000
vt 0.843750 0.500000
vt 0.812500 1.000000
vt 0.812500 0.500000
vt 0.781250 1.000000
vt 0.781250 0.500000
vt 0.750000 1.000000
vt 0.750000 0.500000
vt 0.718750 1.000000
vt 0.718750 0.500000
vt 0.687500 1.000000
vt 0.687500 0.500000
vt 0.656250 1.000000
vt 0.656250 0.500000
vt 0.625000 1.000000
vt 0.625000 0.500000
vt 0.593750 1.000000
vt 0.593750 0.500000
vt 0.562500 1.000000
vt 0.562500 0.500000
vt 0.531250 1.000000
vt 0.531250 0.500000
vt 0.500000 1.000000
vt 0.500000 0.500000
vt 0.468750 1.000000
vt 0.468750 0.500000
vt 0.437500 1.000000
vt 0.437500 0.500000
vt 0.406250 1.000000
vt 0.406250 0.500000
vt 0.375000 1.000000
vt 0.375000 0.500000
vt 0.343750 1.000000
vt 0.343750 0.500000
vt 0.312500 1.000000
vt 0.312500 0.500000
vt 0.281250 1.000000
vt 0.281250 0.500000
vt 0.250000 1.000000
vt 0.250000 0.500000
vt 0.218750 1.000000
vt 0.218750 0.500000
vt 0.187500 1.000000
vt 0.187500 0.500000
vt 0.156250 1.000000
vt 0.156250 0.500000
vt 0.125000 1.000000
vt 0.125000 0.500000
vt 0.093750 1.000000
vt 0.093750 0.500000
vt 0.062500 1.000000
vt 0.062500 0.500000
vt 0.296822 0.485388
vt 0.250000 0.490000
vt 0.203178 0.485388
vt 0.158156 0.471731
vt 0.116663 0.449553
vt 0.080294 0.419706
vt 0.050447 0.383337
vt 0.028269 0.341844
vt 0.014612 0.296822
vt 0.010000 0.250000
vt 0.014612 0.203178
vt 0.028269 0.158156
vt 0.050447 0.116663
vt 0.080294 0.080294
vt 0.116663 0.050447
vt 0.158156 0.028269
vt 0.203178 0.014612
vt 0.250000 0.010000
vt 0.296822 0.014612
vt 0.341844 0.028269
vt 0.383337 0.050447
vt 0.419706 0.080294
vt 0.449553 0.116663
vt 0.471731 0.158156
vt 0.485388 0.203178
vt 0.490000 0.250000
vt 0.485388 0.296822
vt 0.471731 0.341844
vt 0.449553 0.383337
vt 0.419706 0.419706
vt 0.383337 0.449553
vt 0.341844 0.471731
vt 0.031250 1.000000
vt 0.031250 0.500000
vt 0.000000 1.000000
vt 0.000000 0.500000
vt 0.750000 0.490000
vt 0.796822 0.485388
vt 0.841844 0.471731
vt 0.883337 0.449553
vt 0.919706 0.419706
vt 0.949553 0.383337
vt 0.971731 0.341844
vt 0.985388 0.296822
vt 0.990000 0.250000
vt 0.985388 0.203178
vt 0.971731 0.158156
vt 0.949553 0.116663
vt 0.919706 0.080294
vt 0.883337 0.050447
vt 0.841844 0.028269
vt 0.796822 0.014612
vt 0.750000 0.010000
vt 0.703178 0.014612
vt 0.658156 0.028269
vt 0.616663 0.050447
vt 0.580294 0.080294
vt 0.550447 0.116663
vt 0.528269 0.158156
vt 0.514612 0.203178
vt 0.510000 0.250000
vt 0.514612 0.296822
vt 0.528269 0.341844
vt 0.550447 0.383337
vt 0.580294 0.419706
vt 0.616663 0.449553
vt 0.658156 0.471731
vt 0.703178 0.485388
s 0
f 97/157/56 98/158/56 100/159/56 99/160/56
f 99/160/57 100/159/57 102/161/57 101/162/57
f 101/162/58 102/161/58 104/163/58 103/164/58
f 103/164/59 104/163/59 106/165/59 105/166/59
f 105/166/60 106/165/60 108/167/60 107/168/60
f 107/168/61 108/167/61 110/169/61 109/170/61
f 109/170/62 110/169/62 112/171/62 111/172/62
f 111/172/63 112/171/63 114/173/63 113/174/63
f 113/174/64 114/173/64 116/175/64 115/176/64
f 115/176/65 116/175/65 118/177/65 117/178/65
f 117/178/66 118/177/66 120/179/66 119/180/66
f 119/180/67 120/179/67 122/181/67 121/182/67
f 121/182/68 122/181/68 124/183/68 123/184/68
f 123/184/69 124/183/69 126/185/69 125/186/69
f 125/186/70 126/185/70 128/187/70 127/188/70
f 127/188/71 128/187/71 130/189/71 129/190/71
f 129/190/72 130/189/72 132/191/72 131/192/72
f 131/192/73 132/191/73 134/193/73 133/194/73
f 133/194/74 134/193/74 136/195/74 135/196/74
f 135/196/75 136/195/75 138/197/75 137/198/75
f 137/198/76 138/197/76 140/199/76 139/200/76
f 139/200/77 140/199/77 142/201/77 141/202/77
f 141/202/78 142/201/78 144/203/78 143/204/78
f 143/204/79 144/203/79 146/205/79 145/206/79
f 145/206/80 146/205/80 148/207/80 147/208/80
f 147/208/81 148/207/81 150/209/81 149/210/81
f 149/210/82 150/209/82 152/211/82 151/212/82
f 151/212/83 152/211/83 154/213/83 153/214/83
f 153/214/84 154/213/84 156/215/84 155/216/84
f 155/216/85 156/215/85 158/217/85 157/218/85
f 100/219/86 98/220/86 160/221/86 158/222/86 156/223/86 154/224/86 152/225/86 150/226/86 148/227/86 146/228/86 144/229/86 142/230/86 140/231/86 138/232/86 136/233/86 134/234/86 132/235/86 130/236/86 128/237/86 126/238/86 124/239/86 122/240/86 120/241/86 118/242/86 116/243/86 114/244/86 112/245/86 110/246/86 108/247/86 106/248/86 104/249/86 102/250/86
f 157/218/87 158/217/87 160/251/87 159/252/87
f 159/252/88 160/251/88 98/253/88 97/254/88
f 97/255/89 99/256/89 101/257/89 103/258/89 105/259/89 107/260/89 109/261/89 111/262/89 113/263/89 115/264/89 117/265/89 119/266/89 121/267/89 123/268/89 125/269/89 127/270/89 129/271/89 131/272/89 133/273/89 135/274/89 137/275/89 139/276/89 141/277/89 143/278/89 145/279/89 147/280/89 149/281/89 151/282/89 153/283/89 155/284/89 157/285/89 159/286/89
o Cube.001
v -12.804452 0.000000 -1.374555
v -12.804452 2.000000 -1.374555
v -12.804452 0.000000 -3.374555
v -12.804452 2.000000 -3.374555
v -10.804452 0.000000 -1.374555
v -10.804452 2.000000 -1.374555
v -10.804452 0.000000 -3.374555
v -10.804452 2.000000 -3.374555
vn -1.0000 -0.0000 -0.0000
vn -0.0000 -0.0000 -1.0000
vn 1.0000 -0.0000 -0.0000
vn -0.0000 -0.0000 1.0000
vn -0.0000 -1.0000 -0.0000
vn -0.0000 1.0000 -0.0000
vt 0.375000 0.000000
vt 0.625000 0.000000
vt 0.625000 0.250000
vt 0.375000 0.250000
vt 0.625000 0.500000
vt 0.375000 0.500000
vt 0.625000 0.750000
vt 0.375000 0.750000
vt 0.625000 1.000000
vt 0.375000 1.000000
vt 0.125000 0.500000
vt 0.125000 0.750000
vt 0.875000 0.500000
vt 0.875000 0.750000
s 0
f 161/287/90 162/288/90 164/289/90 163/290/90
f 163/290/91 164/289/91 168/291/91 167/292/91
f 167/292/92 168/291/92 166/293/92 165/294/92
f 165/294/93 166/293/93 162/295/93 161/296/93
f 163/297/94 167/292/94 165/294/94 161/298/94
f 168/291/95 164/299/95 162/300/95 166/293/95
